<?xml version="1.0" encoding="utf-8"?>
<!-- Generator: Adobe Illustrator 17.0.0, SVG Export Plug-In . SVG Version: 6.00 Build 0)  -->
<!DOCTYPE svg PUBLIC "-//W3C//DTD SVG 1.1//EN" "http://www.w3.org/Graphics/SVG/1.1/DTD/svg11.dtd">
<svg version="1.1" xmlns="http://www.w3.org/2000/svg" xmlns:xlink="http://www.w3.org/1999/xlink" x="0px" y="0px"
	 width="412.608px" height="159.383px" viewBox="0 0 412.608 159.383" enable-background="new 0 0 412.608 159.383"
	 xml:space="preserve">
<g>
	<g>
		<path fill="#303E65" d="M105.315,159.383h28.987V85.446l-70.148,16.787c-0.889,2.31-2.162,4.429-3.741,6.281L105.315,159.383z"/>
		<path fill="#303E65" d="M26.44,107.281L0,99.184v50.076l33.534-35.763C30.738,111.966,28.317,109.835,26.44,107.281z"/>
		<path fill="#303E65" d="M37.452,115.166L0,155.108v4.274h42.975l4.324-43.498c-1.103,0.174-2.233,0.266-3.384,0.266
			C41.665,116.15,39.495,115.805,37.452,115.166z"/>
		<path fill="#303E65" d="M46.995,159.383h52.986l-42.432-48.071c-1.822,1.477-3.885,2.667-6.122,3.496L46.995,159.383z"/>
		<path fill="#303E65" d="M60.158,80.131l74.144-77.015V0H67.186L48.057,73.19C52.834,74.118,57.054,76.619,60.158,80.131z"/>
		<path fill="#303E65" d="M33.489,75.468L10.638,0H0v58.91l25.064,24.872C27.05,80.294,29.971,77.406,33.489,75.468z"/>
		<path fill="#303E65" d="M23.326,87.693L0,64.546V95l23.687,7.254c-0.934-2.418-1.451-5.041-1.451-7.785
			C22.236,92.103,22.622,89.827,23.326,87.693z"/>
		<path fill="#303E65" d="M65.333,97.836l68.969-16.504V8.882L62.553,83.409c1.93,3.241,3.043,7.022,3.043,11.06
			C65.596,95.615,65.505,96.739,65.333,97.836z"/>
		<path fill="#303E65" d="M44.028,72.792L63.052,0H14.817l22.366,73.865c2.121-0.695,4.383-1.076,6.733-1.076
			C43.953,72.789,43.99,72.792,44.028,72.792z"/>
		<path fill="#303E65" d="M43.915,75.789c-10.3,0-18.68,8.38-18.68,18.681s8.38,18.681,18.68,18.681
			c10.301,0,18.681-8.38,18.681-18.681S54.216,75.789,43.915,75.789z"/>
	</g>
	<g>
		<path fill="#282828" d="M244.517,70.839h11.206v3.809c0,13.623-2.319,22.132-6.958,25.525c-4.64,3.395-16.309,5.09-35.01,5.09
			c-16.748,0-27.393-2.99-31.934-8.972c-4.541-5.98-6.812-20.056-6.812-42.225c0-17.333,0.513-28.234,1.538-32.702
			s3.955-8.46,8.789-11.976c5.664-4.102,17.896-6.152,36.694-6.152c12.744,0,21.325,1.978,25.744,5.933s6.629,11.598,6.629,22.925
			l0.073,2.71h-11.206l-0.073-3.076c0-8.057-1.307-13.231-3.919-15.527c-2.612-2.294-8.508-3.442-17.688-3.442
			c-16.113,0-25.953,1.344-29.517,4.028c-3.564,2.687-5.347,10.133-5.347,22.339c0,28.077,1.196,44.531,3.589,49.365
			c2.392,4.834,10.571,7.251,24.536,7.251c13.281,0,21.57-1.049,24.865-3.149c3.297-2.099,4.944-7.372,4.944-15.82L244.517,70.839z"
			/>
		<path fill="#282828" d="M337.022,31.361h-11.206c0-8.057-1.344-13.171-4.028-15.344c-2.686-2.172-9.009-3.26-18.97-3.26
			c-11.817,0-19.435,1.038-22.852,3.113c-3.418,2.076-5.127,6.701-5.127,13.879c0,8.057,1.343,12.964,4.028,14.722
			c2.685,1.758,10.668,2.955,23.95,3.589c15.575,0.685,25.476,2.662,29.7,5.933c4.223,3.272,6.335,10.597,6.335,21.973
			c0,12.305-2.43,20.265-7.288,23.877c-4.858,3.614-15.589,5.42-32.189,5.42c-14.404,0-23.986-1.818-28.748-5.456
			c-4.76-3.637-7.141-10.974-7.141-22.01l-0.073-4.468h11.206v2.49c0,8.936,1.366,14.491,4.102,16.663
			c2.734,2.173,9.741,3.259,21.021,3.259c12.938,0,20.898-1.086,23.877-3.259c2.978-2.172,4.468-7.971,4.468-17.396
			c0-6.103-1.014-10.168-3.039-12.194c-2.027-2.025-6.263-3.234-12.708-3.626l-11.719-0.586l-11.133-0.586
			c-16.944-1.172-25.415-9.961-25.415-26.367c0-11.376,2.465-18.97,7.397-22.778c4.932-3.809,14.77-5.713,29.517-5.713
			c14.941,0,24.683,1.771,29.224,5.311C334.751,12.088,337.022,19.692,337.022,31.361z"/>
		<path fill="#282828" d="M359.654,13.783v34.058h50.757v9.521h-50.757v37.354h52.954v9.521h-64.233V4.262h64.233v9.521H359.654z"/>
	</g>
	<g>
		<path fill="#282828" d="M182.966,154.185v-25.994h12.44h1.129c3.344,0,5.623,0.565,6.839,1.695s1.824,3.244,1.824,6.342
			c0,2.971-0.634,4.995-1.899,6.074c-1.268,1.079-3.645,1.619-7.133,1.619l-1.303,0.019h-8.554v10.245H182.966z M186.31,141.465
			h7.925c3.314,0,5.438-0.298,6.372-0.895s1.4-1.968,1.4-4.113c0-2.514-0.315-4.104-0.944-4.771c-0.63-0.667-2.125-1-4.483-1
			l-1.281-0.019h-8.988V141.465z"/>
		<path fill="#282828" d="M213.195,154.185v-25.994h14.112c3.185,0,5.428,0.553,6.73,1.657s1.954,3.021,1.954,5.751
			c0,2.399-0.354,4.072-1.063,5.018c-0.71,0.946-2.062,1.559-4.061,1.838v0.057c3.141,0.204,4.712,1.88,4.712,5.027v6.646h-3.344
			v-5.979c0-3.034-1.498-4.552-4.494-4.552h-1.107h-10.096v10.531H213.195z M216.538,141.18h9.661c2.548,0,4.284-0.34,5.211-1.02
			c0.926-0.679,1.39-1.958,1.39-3.837c0-2.349-0.344-3.878-1.031-4.589s-2.16-1.066-4.418-1.066h-10.812V141.18z"/>
		<path fill="#282828" d="M255.734,127.926c5.602,0,9.104,0.717,10.508,2.151c1.404,1.435,2.106,5.021,2.106,10.759
			c0,6.184-0.673,9.998-2.02,11.445c-1.346,1.447-4.878,2.171-10.595,2.171c-5.688,0-9.217-0.717-10.584-2.151
			c-1.368-1.435-2.052-5.143-2.052-11.121v-1.828l0.043-2.457c0-3.453,0.887-5.812,2.66-7.074
			C247.574,128.557,250.885,127.926,255.734,127.926z M255.712,130.4c-4.689,0-7.433,0.457-8.229,1.371s-1.194,4.051-1.194,9.408
			c0,5.369,0.398,8.512,1.194,9.426s3.539,1.371,8.229,1.371c4.704,0,7.454-0.457,8.25-1.371s1.194-4.057,1.194-9.426v-1.695
			l-0.021-2.457c0-2.868-0.551-4.69-1.65-5.465C262.384,130.788,259.793,130.4,255.712,130.4z"/>
		<path fill="#282828" d="M292.844,128.191v18.339c0,3.06-0.637,5.145-1.91,6.256c-1.273,1.11-3.662,1.666-7.165,1.666
			c-3.546,0-5.978-0.473-7.295-1.419c-1.316-0.945-1.976-2.688-1.976-5.227c0-1.182,0.022-2.209,0.065-3.086h3.278v0.477v2
			c0,2.12,0.326,3.446,0.978,3.979c0.65,0.533,2.258,0.8,4.819,0.8c2.533,0,4.144-0.349,4.831-1.047
			c0.687-0.698,1.031-2.324,1.031-4.875v-17.863H292.844z"/>
		<path fill="#282828" d="M304.641,130.668v8.854h15.046v2.476h-15.046v9.712h15.697v2.476h-19.041v-25.994h19.041v2.477H304.641z"
			/>
		<path fill="#282828" d="M348.071,145.502h3.321v0.99c0,3.542-0.688,5.754-2.062,6.637c-1.375,0.882-4.834,1.323-10.378,1.323
			c-4.964,0-8.119-0.777-9.466-2.333c-1.346-1.555-2.019-5.214-2.019-10.979c0-4.506,0.151-7.341,0.456-8.502
			c0.304-1.162,1.172-2.199,2.604-3.113c1.68-1.066,5.305-1.6,10.878-1.6c3.777,0,6.321,0.514,7.631,1.542
			c1.311,1.028,1.965,3.016,1.965,5.96l0.022,0.705h-3.322l-0.021-0.8c0-2.095-0.388-3.44-1.162-4.037s-2.521-0.896-5.243-0.896
			c-4.776,0-7.693,0.35-8.749,1.048c-1.057,0.698-1.585,2.635-1.585,5.808c0,7.301,0.354,11.578,1.063,12.836
			c0.709,1.256,3.134,1.885,7.273,1.885c3.937,0,6.394-0.272,7.371-0.818c0.977-0.546,1.465-1.917,1.465-4.113L348.071,145.502z"/>
		<path fill="#282828" d="M369.507,130.915v23.271h-3.344v-23.271h-9.661v-2.724h22.579v2.724H369.507z"/>
		<path fill="#282828" d="M406.379,135.238h-3.321c0-2.096-0.398-3.425-1.194-3.99c-0.796-0.564-2.67-0.848-5.623-0.848
			c-3.503,0-5.761,0.271-6.773,0.81c-1.014,0.54-1.521,1.743-1.521,3.608c0,2.096,0.398,3.371,1.194,3.828s3.162,0.769,7.1,0.934
			c4.617,0.178,7.552,0.691,8.804,1.542s1.878,2.755,1.878,5.713c0,3.199-0.72,5.269-2.16,6.208s-4.621,1.409-9.542,1.409
			c-4.27,0-7.11-0.473-8.521-1.419c-1.411-0.945-2.117-2.853-2.117-5.723l-0.021-1.161h3.322v0.647c0,2.323,0.404,3.768,1.216,4.332
			c0.811,0.565,2.888,0.848,6.23,0.848c3.836,0,6.195-0.282,7.078-0.848c0.883-0.564,1.324-2.072,1.324-4.522
			c0-1.587-0.301-2.644-0.9-3.171c-0.602-0.526-1.856-0.841-3.768-0.942l-3.474-0.152l-3.3-0.152
			c-5.022-0.305-7.534-2.59-7.534-6.855c0-2.958,0.731-4.933,2.193-5.923s4.378-1.484,8.749-1.484c4.43,0,7.316,0.46,8.663,1.38
			C405.706,130.227,406.379,132.204,406.379,135.238z"/>
	</g>
</g>
</svg>
